<?xml version="1.0" standalone="no"?>
<!DOCTYPE svg PUBLIC "-//W3C//DTD SVG 20010904//EN"
 "http://www.w3.org/TR/2001/REC-SVG-20010904/DTD/svg10.dtd">
<svg version="1.0" xmlns="http://www.w3.org/2000/svg"
 width="147.000000pt" height="149.000000pt" viewBox="0 0 147.000000 149.000000"
 preserveAspectRatio="xMidYMid meet">
<metadata>
Created by potrace 1.16, written by Peter Selinger 2001-2019
</metadata>
<g transform="translate(0.000000,149.000000) scale(0.100000,-0.100000)"
fill="#000000" stroke="none">
<path d="M652 1474 c-63 -32 -122 -110 -122 -162 0 -12 -9 -22 -22 -26 -111
-28 -286 -178 -350 -301 -68 -132 -99 -288 -79 -405 8 -48 7 -56 -10 -68 -10
-7 -31 -33 -45 -58 -23 -39 -26 -53 -22 -112 5 -79 31 -126 93 -165 51 -33
109 -42 164 -27 39 10 46 9 65 -8 37 -35 143 -92 213 -115 99 -32 307 -32 406
0 74 25 177 81 217 119 23 21 29 23 64 13 84 -23 185 22 227 101 29 53 26 142
-6 196 -14 24 -32 47 -39 51 -11 6 -12 21 -4 73 18 125 -9 266 -78 403 -61
119 -240 275 -350 303 -16 4 -23 16 -28 43 -7 45 -43 95 -93 129 -49 34 -150
42 -201 16z m179 -49 c101 -66 112 -197 23 -274 -75 -66 -165 -63 -235 8 -73
72 -72 168 1 241 64 64 138 73 211 25z m-283 -235 c25 -55 68 -93 128 -113
l39 -14 3 -75 3 -75 -43 -11 c-130 -34 -209 -164 -179 -294 6 -28 10 -52 9
-53 -2 -1 -31 -18 -66 -39 l-64 -36 -40 35 c-46 39 -86 50 -158 43 -59 -6 -60
-4 -60 101 0 164 64 316 184 437 62 62 182 143 211 144 6 0 20 -22 33 -50z
m465 29 c208 -105 347 -328 347 -558 0 -116 -2 -118 -65 -113 -64 5 -114 -10
-154 -47 l-29 -27 -71 41 c-59 33 -71 44 -66 60 37 134 -14 258 -130 311 -27
13 -58 24 -68 24 -16 0 -18 9 -15 77 l3 76 39 14 c60 20 103 58 128 113 13 28
26 50 31 50 4 0 27 -9 50 -21z m-188 -368 c117 -53 159 -202 87 -306 -32 -48
-118 -95 -172 -95 -53 0 -140 47 -173 95 -33 48 -45 126 -27 179 27 83 113
146 200 146 25 0 63 -9 85 -19z m-544 -344 c24 -13 54 -38 65 -55 12 -17 23
-30 25 -27 2 2 5 -10 5 -27 1 -17 7 -34 15 -39 8 -5 9 -9 3 -9 -7 0 -15 -15
-18 -33 -3 -18 -19 -49 -36 -68 -76 -94 -196 -91 -274 5 -26 31 -30 46 -31 95
0 73 33 128 97 160 55 27 94 27 149 -2z m349 -67 c91 -47 220 -25 290 50 l26
28 64 -39 c36 -21 68 -40 72 -41 4 -2 2 -22 -4 -46 -13 -53 3 -116 41 -163
l28 -33 -31 -26 c-46 -41 -148 -89 -234 -111 -96 -24 -188 -24 -286 1 -80 20
-202 78 -231 110 -15 16 -14 21 16 69 25 40 33 63 33 104 1 29 -3 62 -7 73 -7
19 1 27 60 61 l68 39 25 -27 c14 -14 46 -37 70 -49z m731 45 c37 -24 79 -94
79 -131 -1 -36 -38 -101 -74 -129 -72 -55 -156 -40 -220 39 -25 31 -30 46 -30
90 0 65 31 112 96 145 51 26 95 22 149 -14z"/>
<path d="M681 1294 c-17 -47 -31 -92 -31 -100 0 -24 29 -15 36 11 5 22 12 25
48 25 36 0 45 -4 54 -25 11 -25 42 -35 42 -15 0 6 -14 51 -31 100 -29 84 -33
90 -59 90 -25 0 -30 -7 -59 -86z m83 -21 c7 -21 4 -23 -27 -23 l-35 0 16 51
17 51 11 -28 c6 -16 15 -39 18 -51z"/>
<path d="M614 797 c-2 -7 -3 -74 -2 -148 3 -130 4 -134 25 -137 22 -3 22 -1
25 120 l3 123 63 -123 63 -123 37 3 37 3 0 145 c0 138 -1 145 -20 145 -19 0
-20 -8 -25 -120 l-5 -120 -59 115 c-32 63 -64 118 -70 122 -18 12 -66 9 -72
-5z"/>
<path d="M132 353 c2 -79 6 -98 18 -98 11 0 16 13 18 48 4 65 30 64 66 -3 15
-27 34 -50 42 -50 19 0 18 4 -11 50 l-26 40 28 25 c27 23 27 25 13 52 -15 26
-21 28 -83 31 l-68 3 3 -98z m96 81 c19 -5 23 -12 20 -38 -3 -28 -7 -31 -40
-34 l-38 -3 0 40 c0 43 8 48 58 35z"/>
<path d="M1217 442 c-36 -39 -15 -84 48 -104 43 -14 57 -41 28 -56 -12 -7 -30
-6 -56 3 -34 12 -37 11 -37 -6 0 -12 11 -21 35 -28 62 -17 105 7 105 59 0 31
-23 56 -62 65 -65 16 -55 61 11 52 30 -4 41 -2 41 8 0 30 -88 35 -113 7z"/>
</g>
</svg>
