<svg version='1.1' baseProfile='full' xmlns='http://www.w3.org/2000/svg' width='1187.0691238104998' height='217.47628673752442'><g transform='translate(5, 5)'><g transform='scale(1.38147131225274) translate(20.04023551940918, -65)'><g><g><polyline points="20,130 32,130 44,130 " style="fill: none; stroke: black;"></polyline><g transform="translate(30, 135)"><text text-anchor="start" y="3" transform="rotate(90)" font-size="12">32x32</text></g></g><g transform="translate(-14, 135)"><text text-anchor="start" y="3" transform="rotate(90)" font-size="12">64x64</text></g></g><g><g><polyline points="64,130 76,130 88,130 " style="fill: none; stroke: black;"></polyline><g transform="translate(74, 135)"><text text-anchor="start" y="3" transform="rotate(90)" font-size="12">16x16</text></g></g></g><g><g><polyline points="128,130 140,130 152,130 " style="fill: none; stroke: black;"></polyline><g transform="translate(138, 135)"><text text-anchor="start" y="3" transform="rotate(90)" font-size="12">16x16</text></g></g></g><g><g><polyline points="192,130 204,130 216,130 " style="fill: none; stroke: black;"></polyline><g transform="translate(202, 135)"><text text-anchor="start" y="3" transform="rotate(90)" font-size="12">16x16</text></g></g></g><g><g><polyline points="256,130 268,130 280,130 " style="fill: none; stroke: black;"></polyline><g transform="translate(266, 135)"><text text-anchor="start" y="3" transform="rotate(90)" font-size="12">8x8</text></g></g></g><g><g><polyline points="360,130 372,130 384,130 " style="fill: none; stroke: black;"></polyline><g transform="translate(370, 135)"><text text-anchor="start" y="3" transform="rotate(90)" font-size="12">8x8</text></g></g></g><g><g><polyline points="464,130 476,130 488,130 " style="fill: none; stroke: black;"></polyline><g transform="translate(474, 135)"><text text-anchor="start" y="3" transform="rotate(90)" font-size="12">8x8</text></g></g></g><g><g><polyline points="568,130 580,130 592,130 " style="fill: none; stroke: black;"></polyline><g transform="translate(578, 135)"><text text-anchor="start" y="3" transform="rotate(90)" font-size="12">4x4</text></g></g></g><g><g><polyline points="612,130 624,130 636,130 " style="fill: none; stroke: black;"></polyline></g></g><g><g><polyline points="656,130 668,130 680,130 " style="fill: none; stroke: black;"></polyline></g></g><g><g><polyline points="700,130 712,130 724,130 " style="fill: none; stroke: black;"></polyline></g></g><g><g><polyline points="744,130 756,130 768,130 " style="fill: none; stroke: black;"></polyline></g></g><g><g><polyline points="788,130 800,130 812,130 " style="fill: none; stroke: black;"></polyline></g></g><g></g><g><g transform="translate(0, 65)"><path d="M 0 0 L 20 26.66666666666667 V 103.33333333333333 L 0 130 V 0 z" style="fill: rgb(179, 108, 36); stroke: rgb(137, 82, 27); stroke-width: 4px; stroke-linejoin: round;"></path><g></g><text text-anchor="middle" x="10" y="147" font-size="12">64</text></g></g><g><g transform="translate(44, 65)"><path d="M 0 26.66666666666667 L 20 40 V 90 L 0 103.33333333333333 V 26.66666666666667 z" style="fill: rgb(179, 36, 178); stroke: rgb(137, 27, 136); stroke-width: 4px; stroke-linejoin: round;"></path><g></g><text text-anchor="middle" x="10" y="120.33333333333333" font-size="12">64</text></g></g><g><g transform="translate(88, 65)"><path d="M 0 40 L 40 40 V 90 L 0 90 V 40 z" style="fill: rgb(179, 108, 36); stroke: rgb(137, 82, 27); stroke-width: 4px; stroke-linejoin: round;"></path><g></g><text text-anchor="middle" x="20" y="107" font-size="12">128</text></g></g><g><g transform="translate(152, 65)"><path d="M 0 40 L 40 40 V 90 L 0 90 V 40 z" style="fill: rgb(179, 108, 36); stroke: rgb(137, 82, 27); stroke-width: 4px; stroke-linejoin: round;"></path><g></g><text text-anchor="middle" x="20" y="107" font-size="12">128</text></g></g><g><g transform="translate(216, 65)"><path d="M 0 40 L 40 46.66666666666667 V 83.33333333333334 L 0 90 V 40 z" style="fill: rgb(179, 36, 178); stroke: rgb(137, 27, 136); stroke-width: 4px; stroke-linejoin: round;"></path><g></g><text text-anchor="middle" x="20" y="107" font-size="12">128</text></g></g><g><g transform="translate(280, 65)"><path d="M 0 46.66666666666667 L 80 46.66666666666667 V 83.33333333333334 L 0 83.33333333333334 V 46.66666666666667 z" style="fill: rgb(179, 108, 36); stroke: rgb(137, 82, 27); stroke-width: 4px; stroke-linejoin: round;"></path><g></g><text text-anchor="middle" x="40" y="100.33333333333334" font-size="12">256</text></g></g><g><g transform="translate(384, 65)"><path d="M 0 46.66666666666667 L 80 46.66666666666667 V 83.33333333333334 L 0 83.33333333333334 V 46.66666666666667 z" style="fill: rgb(179, 108, 36); stroke: rgb(137, 82, 27); stroke-width: 4px; stroke-linejoin: round;"></path><g></g><text text-anchor="middle" x="40" y="100.33333333333334" font-size="12">256</text></g></g><g><g transform="translate(488, 65)"><path d="M 0 46.66666666666667 L 80 50 V 80 L 0 83.33333333333334 V 46.66666666666667 z" style="fill: rgb(179, 36, 178); stroke: rgb(137, 27, 136); stroke-width: 4px; stroke-linejoin: round;"></path><g></g><text text-anchor="middle" x="40" y="100.33333333333334" font-size="12">256</text></g></g><g><g transform="translate(592, 65)"><path d="M 0 0 L 20 0 V 130 L 0 130 V 0 z" style="fill: rgb(36, 179, 36); stroke: rgb(36, 179, 36); stroke-width: 4px; stroke-linejoin: round;"></path><g></g><text text-anchor="middle" x="10" y="147" font-size="12">4096</text></g></g><g><g transform="translate(636, 65)"><path d="M 0 0 L 20 0 V 130 L 0 130 V 0 z" style="fill: rgb(36, 179, 143); stroke: rgb(36, 179, 143); stroke-width: 4px; stroke-linejoin: round;"></path><g></g><text text-anchor="middle" x="10" y="147" font-size="12">480</text></g></g><g><g transform="translate(680, 65)"><path d="M 0 0 L 20 0 V 130 L 0 130 V 0 z" style="fill: rgb(72, 36, 179); stroke: rgb(72, 36, 179); stroke-width: 4px; stroke-linejoin: round;"></path><g></g><text text-anchor="middle" x="10" y="147" font-size="12">480</text></g></g><g><g transform="translate(724, 65)"><path d="M 0 3.3472803347280333 L 20 3.3472803347280333 V 126.65271966527197 L 0 126.65271966527197 V 3.3472803347280333 z" style="fill: rgb(36, 179, 143); stroke: rgb(36, 179, 143); stroke-width: 4px; stroke-linejoin: round;"></path><g></g><text text-anchor="middle" x="10" y="143.65271966527197" font-size="12">448</text></g></g><g><g transform="translate(768, 65)"><path d="M 0 3.3472803347280333 L 20 3.3472803347280333 V 126.65271966527197 L 0 126.65271966527197 V 3.3472803347280333 z" style="fill: rgb(72, 36, 179); stroke: rgb(72, 36, 179); stroke-width: 4px; stroke-linejoin: round;"></path><g></g><text text-anchor="middle" x="10" y="143.65271966527197" font-size="12">448</text></g></g><g><g transform="translate(812, 65)"><path d="M 0 50 L 20 50 V 80 L 0 80 V 50 z" style="fill: rgb(36, 179, 143); stroke: rgb(36, 179, 143); stroke-width: 4px; stroke-linejoin: round;"></path><g></g><text text-anchor="middle" x="10" y="97" font-size="12">2</text></g></g></g></g></svg>