<?xml version="1.0" standalone="no"?>
<!DOCTYPE svg PUBLIC "-//W3C//DTD SVG 20010904//EN"
 "http://www.w3.org/TR/2001/REC-SVG-20010904/DTD/svg10.dtd">
<svg version="1.0" xmlns="http://www.w3.org/2000/svg"
 width="197.000000pt" height="199.000000pt" viewBox="0 0 197.000000 199.000000"
 preserveAspectRatio="xMidYMid meet">
<metadata>
Created by potrace 1.16, written by Peter Selinger 2001-2019
</metadata>
<g transform="translate(0.000000,199.000000) scale(0.100000,-0.100000)"
fill="#000000" stroke="none">
<path d="M896 1974 c-87 -27 -185 -150 -186 -233 0 -10 -25 -26 -68 -43 -101
-41 -188 -102 -282 -198 -91 -92 -132 -153 -185 -277 -51 -118 -68 -222 -63
-375 3 -70 7 -130 10 -133 3 -3 11 -3 19 0 11 4 14 37 14 163 0 119 4 173 18
222 22 82 74 192 125 267 45 66 154 174 225 222 42 28 167 91 182 91 2 0 10
-19 16 -42 22 -91 103 -169 196 -193 l48 -12 3 -110 3 -111 -38 -7 c-117 -21
-216 -107 -253 -219 -16 -50 -15 -151 3 -201 l15 -41 -94 -54 c-88 -51 -107
-70 -85 -84 5 -4 51 18 102 48 l93 53 43 -42 c70 -70 121 -90 233 -90 86 0
100 3 148 29 29 17 68 47 87 67 l33 37 99 -57 c94 -54 98 -58 93 -86 -19 -118
3 -207 67 -271 l33 -33 -52 -40 c-238 -178 -551 -221 -822 -112 -77 31 -172
86 -213 124 -18 16 -27 18 -44 11 -21 -10 -20 -12 22 -46 163 -131 368 -195
589 -185 184 9 347 67 491 176 62 47 68 50 100 41 121 -35 246 15 303 120 55
102 42 216 -35 303 l-39 45 11 97 c9 73 8 119 -1 193 -39 316 -221 565 -513
702 -80 38 -81 38 -94 89 -25 98 -91 167 -189 197 -59 17 -105 17 -168 -2z
m156 -38 c172 -51 226 -270 97 -393 -46 -43 -97 -63 -164 -63 -135 0 -229 94
-229 230 0 162 144 272 296 226z m319 -302 c203 -102 370 -310 430 -539 22
-83 31 -289 16 -348 -7 -26 -10 -27 -45 -20 -54 12 -133 7 -174 -10 -20 -8
-54 -32 -77 -52 l-41 -37 -100 56 c-55 32 -100 59 -100 62 0 3 7 28 16 55 32
98 -3 235 -80 312 -43 44 -119 84 -173 93 l-38 6 3 114 c3 112 4 114 26 114
37 0 93 27 138 68 41 36 88 120 88 155 0 23 18 18 111 -29z m-255 -497 c162
-82 202 -295 82 -432 -97 -111 -265 -129 -380 -42 -135 103 -149 302 -30 422
65 65 120 86 212 81 45 -2 81 -11 116 -29z m627 -518 c30 -8 37 -14 37 -36 0
-20 -3 -24 -17 -17 -10 4 -36 8 -58 8 -36 1 -40 -2 -40 -23 0 -20 8 -27 49
-41 73 -24 97 -63 80 -128 -8 -28 -52 -52 -94 -52 -46 0 -100 26 -100 48 0 29
10 33 41 17 43 -23 96 -20 104 6 9 27 -8 42 -61 57 -22 7 -49 21 -59 32 -38
42 -15 123 39 133 36 7 40 7 79 -4z"/>
<path d="M945 1838 c-2 -7 -23 -64 -45 -127 -22 -63 -40 -118 -40 -123 0 -4
11 -8 24 -8 18 0 27 8 35 30 9 28 13 30 65 30 51 0 55 -2 65 -30 7 -23 16 -30
35 -30 15 0 26 6 25 13 0 6 -19 66 -43 132 l-42 120 -37 3 c-24 2 -39 -1 -42
-10z m42 -166 c-22 -2 -41 -1 -43 1 -4 3 12 54 32 107 4 9 14 -8 28 -45 l21
-60 -38 -3z"/>
<path d="M822 1078 c-14 -14 -17 -355 -3 -376 4 -8 19 -12 32 -10 24 3 24 4
29 163 l5 160 85 -160 85 -160 50 0 50 0 3 192 c2 188 2 192 -19 198 -38 12
-44 -9 -49 -166 l-5 -150 -74 143 c-41 79 -81 151 -89 161 -18 20 -82 23 -100
5z"/>
</g>
</svg>
